<?xml version="1.0" standalone="no"?>
<!DOCTYPE svg PUBLIC "-//W3C//DTD SVG 20010904//EN"
 "http://www.w3.org/TR/2001/REC-SVG-20010904/DTD/svg10.dtd">
<svg version="1.0" xmlns="http://www.w3.org/2000/svg"
 width="639.000000pt" height="639.000000pt" viewBox="0 0 639.000000 639.000000"
 preserveAspectRatio="xMidYMid meet">
<metadata>
Created by potrace 1.11, written by Peter Selinger 2001-2013
</metadata>
<g transform="translate(0.000000,639.000000) scale(0.100000,-0.100000)"
fill="#000000" stroke="none">
<path d="M4575 6334 c-285 -42 -545 -231 -672 -489 -19 -38 -36 -77 -39 -85
-2 -8 -14 -49 -27 -90 l-22 -75 -5 -1680 c-4 -1277 -8 -1672 -16 -1645 -7 19
-68 177 -137 350 -69 173 -150 379 -181 457 l-55 142 -1 879 c-1 990 1 950
-77 1109 -142 293 -495 440 -798 334 l-52 -18 -64 130 c-229 464 -456 649
-799 647 -126 0 -214 -17 -334 -65 -257 -100 -462 -331 -532 -597 -1 -5 -2 -9
-3 -10 -3 -4 -10 -40 -19 -103 -10 -65 -8 -4533 2 -4605 10 -74 59 -218 97
-288 159 -289 447 -464 769 -466 124 -1 174 4 260 27 231 62 425 212 545 423
54 93 101 238 112 344 4 41 8 789 7 1663 0 873 3 1587 7 1587 3 0 9 -8 12 -17
3 -10 33 -88 67 -173 34 -85 79 -202 101 -260 23 -58 47 -118 54 -135 7 -16
53 -129 101 -250 l89 -220 5 -1050 c6 -1027 6 -1051 26 -1110 56 -161 146
-283 268 -359 112 -71 190 -95 326 -101 138 -6 267 27 369 94 l44 29 56 -86
c99 -151 220 -264 341 -319 66 -30 183 -54 280 -56 426 -12 793 262 903 675
l22 83 0 2295 c0 1262 -3 2314 -7 2337 -15 90 -41 171 -78 249 -169 352 -555
556 -945 498z m215 -449 c164 -19 326 -176 360 -350 14 -73 13 -4502 -1 -4546
-6 -19 -13 -41 -17 -49 -3 -8 -6 -17 -7 -20 -8 -31 -56 -100 -99 -142 -66 -65
-149 -108 -239 -123 -208 -36 -313 50 -480 395 l-47 95 1 2175 c0 1367 4 2192
10 2220 16 74 67 166 122 221 58 58 165 114 237 124 25 4 46 8 48 10 2 2 15 2
30 0 15 -2 52 -6 82 -10z m-3050 -55 c97 -49 182 -166 298 -405 40 -82 81
-166 91 -186 18 -35 18 -38 -1 -90 -10 -30 -24 -74 -30 -99 -8 -33 -12 -582
-13 -2045 -2 -1100 -5 -2013 -8 -2028 -12 -57 -31 -103 -65 -157 -102 -161
-286 -236 -482 -195 -59 12 -168 72 -214 118 -54 54 -107 153 -122 229 -4 18
-8 1034 -8 2258 -2 2406 -5 2274 51 2384 52 102 176 198 292 225 70 17 169 13
211 -9z m1081 -721 c9 -4 19 -6 22 -3 2 3 27 -17 55 -44 70 -68 74 -94 70
-421 l-3 -264 -58 149 c-32 82 -62 158 -67 169 -32 75 -153 393 -154 405 -2
26 92 32 135 9z m788 -3584 c8 -17 20 -48 26 -65 15 -44 140 -337 148 -348 15
-19 -37 -91 -81 -110 -20 -8 -60 -17 -89 -18 -42 -2 -60 3 -95 25 -25 16 -55
46 -69 67 l-24 39 -3 440 -2 440 90 -225 c49 -124 94 -234 99 -245z"/>
</g>
</svg>
