<?xml version="1.0" standalone="no"?>
<!DOCTYPE svg PUBLIC "-//W3C//DTD SVG 20010904//EN"
 "http://www.w3.org/TR/2001/REC-SVG-20010904/DTD/svg10.dtd">
<svg version="1.0" xmlns="http://www.w3.org/2000/svg"
 width="225.000000pt" height="225.000000pt" viewBox="0 0 225.000000 225.000000"
 preserveAspectRatio="xMidYMid meet">

<g transform="translate(0.000000,225.000000) scale(0.100000,-0.100000)"
fill="#000000" stroke="none">
<path d="M1059 1849 c-91 -8 -188 -37 -284 -87 -103 -53 -237 -191 -293 -299
l-43 -83 -70 0 -69 0 0 -209 c0 -236 1 -241 71 -241 43 0 40 3 75 -94 20 -54
92 -167 147 -231 l34 -39 37 32 c20 18 39 32 41 32 3 0 26 -16 51 -36 214
-163 545 -163 758 0 l48 38 41 -33 40 -33 34 40 c59 67 122 170 151 246 l28
73 58 3 57 3 -3 205 c-3 202 -3 206 -27 225 -15 13 -39 19 -70 19 -44 0 -48 2
-59 34 -18 49 -86 150 -140 208 -156 167 -371 247 -613 227z m276 -39 c197
-62 348 -186 440 -361 l36 -69 -44 0 c-44 0 -45 0 -83 66 -75 128 -228 245
-379 290 -91 27 -258 25 -355 -4 -151 -47 -296 -160 -370 -290 -34 -60 -36
-61 -77 -62 -24 0 -43 2 -43 5 0 14 46 96 85 150 104 147 258 248 441 289 96
22 256 15 349 -14z m-12 -99 c148 -52 289 -164 350 -278 l28 -53 -565 0 c-322
0 -566 4 -566 9 0 5 18 36 41 70 83 125 230 229 374 266 84 21 260 14 338 -14z
m237 -493 l0 -62 33 32 c30 29 67 43 67 25 0 -4 -12 -19 -26 -34 l-27 -28 32
-43 c31 -42 32 -43 10 -46 -12 -2 -26 2 -30 10 -32 54 -59 60 -59 12 0 -17 -5
-24 -20 -24 -19 0 -20 7 -20 110 0 103 1 110 20 110 18 0 20 -7 20 -62z m-968
-14 l53 -66 3 66 c3 58 5 66 22 66 19 0 20 -7 20 -105 0 -93 -2 -105 -17 -105
-10 0 -40 30 -68 67 l-50 66 -3 -66 c-3 -59 -5 -67 -22 -67 -19 0 -20 7 -20
105 0 129 8 132 82 39z m348 36 c0 -13 7 -20 20 -20 27 0 26 -30 -1 -37 -17
-5 -20 -12 -17 -47 2 -33 7 -40 21 -38 21 4 23 -26 2 -34 -8 -4 -26 -3 -40 0
-23 6 -25 11 -25 61 0 30 -4 55 -10 55 -5 0 -10 9 -10 20 0 11 5 20 10 20 6 0
10 9 10 20 0 13 7 20 20 20 13 0 20 -7 20 -20z m820 -30 c0 -27 3 -30 30 -30
20 0 30 -5 30 -15 0 -10 -10 -15 -30 -15 -27 0 -30 -3 -30 -30 0 -23 -4 -30
-20 -30 -16 0 -20 7 -20 30 0 25 -4 30 -25 30 -16 0 -25 6 -25 15 0 9 9 15 25
15 21 0 25 5 25 30 0 23 4 30 20 30 16 0 20 -7 20 -30z m-914 -15 c16 -16 24
-34 22 -48 -3 -19 -10 -22 -56 -25 -45 -3 -52 -5 -42 -18 14 -16 41 -19 56 -4
6 6 15 6 24 -1 13 -8 12 -11 -4 -24 -51 -39 -126 -1 -126 64 0 73 75 107 126
56z m195 -26 l13 -51 17 49 c22 67 43 67 65 1 l17 -53 15 53 c11 39 19 52 33
52 24 0 24 -2 -4 -86 -30 -87 -53 -94 -76 -20 l-15 48 -16 -48 c-25 -73 -47
-67 -77 20 -28 84 -28 86 -4 86 15 0 22 -12 32 -51z m324 26 c73 -73 -37 -184
-112 -113 -33 31 -32 90 3 117 36 28 79 27 109 -4z m85 8 c0 -15 1 -15 18 0
25 23 42 21 42 -3 0 -11 -6 -20 -14 -20 -23 0 -46 -41 -46 -82 0 -31 -4 -38
-20 -38 -18 0 -20 7 -20 73 0 41 3 77 7 80 12 13 33 7 33 -10z m-901 -358 c23
-46 64 -111 91 -144 l50 -60 -32 -22 -32 -23 -47 53 c-65 73 -160 257 -142
275 4 3 21 6 39 6 31 0 34 -4 73 -85z m1181 73 c0 -28 -75 -160 -119 -209
l-48 -53 -69 36 c-94 49 -187 78 -251 78 l-53 0 0 40 0 40 -83 0 c-90 0 -107
-8 -107 -50 0 -23 -6 -27 -67 -43 -36 -9 -101 -35 -144 -57 -44 -22 -83 -40
-87 -40 -27 0 -162 213 -162 255 0 13 68 15 595 15 449 0 595 -3 595 -12z m96
-20 c-16 -82 -154 -298 -190 -298 -7 0 -22 10 -34 23 l-21 23 45 54 c25 30 64
94 87 142 l42 87 39 1 c38 0 38 0 32 -32z m-646 -98 c0 -30 -1 -30 -55 -30
l-55 0 0 -50 c0 -49 -1 -50 -30 -50 l-30 0 0 73 c0 41 3 77 7 80 3 4 42 7 85
7 l78 0 0 -30z m0 -85 l0 -45 -45 0 -45 0 0 45 0 45 45 0 45 0 0 -45z m68 -37
l-3 -83 -77 -3 -78 -3 0 31 c0 29 1 30 50 30 l50 0 0 55 c0 55 0 55 30 55 l31
0 -3 -82z m194 23 c35 -16 72 -36 83 -45 20 -15 20 -16 -10 -41 -43 -36 -160
-92 -230 -110 -77 -20 -230 -19 -309 1 -67 17 -174 70 -221 109 l-30 25 25 20
c34 27 157 78 208 86 l42 7 0 -52 0 -51 35 0 c33 0 35 -2 35 -35 l0 -36 98 3
97 3 3 86 3 87 54 -14 c30 -8 82 -27 117 -43z"/>
<path d="M790 1560 c-27 -27 -25 -46 6 -76 19 -20 31 -24 52 -19 43 10 50 25
9 18 -43 -7 -67 9 -67 43 0 33 40 52 75 36 35 -16 44 -14 21 3 -28 21 -72 19
-96 -5z"/>
<path d="M1223 1573 c24 -4 27 -8 27 -46 0 -23 5 -49 10 -57 7 -11 10 1 10 42
0 54 1 57 28 61 15 2 -2 4 -38 4 -36 0 -53 -2 -37 -4z"/>
<path d="M1330 1526 c0 -30 5 -58 10 -61 6 -4 10 15 10 49 0 30 -4 58 -10 61
-6 4 -10 -15 -10 -49z"/>
<path d="M1386 1523 c-15 -31 -24 -58 -21 -61 2 -3 7 3 11 12 4 11 18 16 44
16 26 0 40 -5 44 -16 4 -9 9 -15 12 -12 6 7 -48 118 -57 118 -4 0 -19 -25 -33
-57z m48 21 c10 -26 7 -34 -15 -34 -15 0 -19 4 -15 16 3 9 6 20 6 25 0 15 17
10 24 -7z"/>
<path d="M920 1532 c-17 -13 -21 -24 -16 -40 9 -26 50 -39 71 -22 21 18 19 57
-4 70 -25 13 -25 13 -51 -8z m58 -24 c5 -26 -33 -42 -53 -22 -12 13 -13 19 -4
31 16 18 53 13 57 -9z"/>
<path d="M1013 1532 c-15 -16 -18 -76 -3 -67 6 3 10 20 10 36 0 45 33 35 41
-11 l6 -35 2 38 c1 31 4 38 19 35 11 -2 19 -16 23 -38 l6 -35 2 37 c0 20 -5
40 -11 45 -21 12 -80 9 -95 -5z"/>
<path d="M1150 1530 c-14 -14 -20 -33 -20 -62 0 -53 17 -39 22 17 3 35 6 40
28 40 18 0 25 -5 25 -20 0 -12 -9 -21 -25 -26 -22 -5 -23 -7 -7 -14 40 -17 67
54 28 75 -26 13 -28 13 -51 -10z"/>
<path d="M772 1178 c-20 -20 -14 -28 23 -28 19 0 35 4 35 8 0 12 -22 32 -35
32 -6 0 -16 -5 -23 -12z"/>
<path d="M1292 1183 c-18 -7 -33 -39 -26 -58 10 -25 41 -37 64 -25 27 14 27
65 1 80 -11 5 -21 10 -23 9 -2 0 -9 -3 -16 -6z"/>
</g>
</svg>
