<?xml version="1.0" standalone="no"?>
<!DOCTYPE svg PUBLIC "-//W3C//DTD SVG 20010904//EN"
 "http://www.w3.org/TR/2001/REC-SVG-20010904/DTD/svg10.dtd">
<svg version="1.0" xmlns="http://www.w3.org/2000/svg"
 width="225.000000pt" height="225.000000pt" viewBox="0 0 225.000000 225.000000"
 preserveAspectRatio="xMidYMid meet">

<g transform="translate(0.000000,225.000000) scale(0.100000,-0.100000)"
fill="#000000" stroke="none">
<path d="M950 1830 c-41 -11 -113 -39 -160 -62 -117 -57 -255 -194 -319 -316
l-43 -84 -64 4 -64 3 0 -211 c0 -235 -2 -230 69 -242 41 -7 42 -8 74 -87 36
-88 96 -182 150 -234 l36 -34 36 31 35 32 47 -36 c108 -83 236 -124 383 -124
146 0 276 42 382 123 l48 37 36 -32 37 -33 57 62 c60 66 110 150 139 236 l18
52 59 5 59 5 2 195 c3 239 2 244 -80 248 l-57 3 -35 68 c-91 181 -253 318
-450 381 -103 33 -292 38 -395 10z m360 -16 c30 -8 98 -35 150 -61 80 -39 109
-60 180 -132 58 -58 97 -109 123 -157 20 -40 37 -77 37 -83 0 -6 -17 -11 -40
-11 -37 0 -41 3 -64 48 -76 151 -232 272 -407 317 -84 22 -234 22 -319 0 -160
-41 -326 -168 -398 -303 -32 -60 -34 -62 -73 -62 -22 0 -39 5 -39 11 0 22 62
128 109 185 175 219 468 316 741 248z m15 -109 c94 -31 159 -70 234 -140 54
-50 131 -157 131 -182 0 -11 -98 -13 -560 -13 -462 0 -560 2 -560 13 0 27 78
133 138 189 72 66 196 132 292 153 95 21 226 13 325 -20z m-660 -468 c30 -23
10 -37 -41 -30 -41 5 -46 4 -43 -12 3 -10 20 -24 43 -31 21 -8 45 -19 52 -25
21 -17 17 -56 -7 -80 -17 -17 -30 -20 -65 -16 -52 5 -79 24 -64 42 9 11 17 10
40 -2 34 -17 73 -9 68 14 -2 9 -21 22 -42 29 -53 19 -66 32 -66 65 0 50 79 79
125 46z m695 -2 c0 -9 -9 -15 -25 -15 -16 0 -25 6 -25 15 0 9 9 15 25 15 16 0
25 -6 25 -15z m70 -15 c0 -13 7 -20 20 -20 13 0 20 -7 20 -20 0 -13 -7 -20
-20 -20 -17 0 -20 -7 -20 -40 0 -33 3 -40 20 -40 13 0 20 -7 20 -20 0 -16 -7
-20 -30 -20 -35 0 -50 23 -50 74 0 20 -6 46 -12 57 -10 17 -10 23 0 26 6 3 12
13 12 24 0 12 7 19 20 19 13 0 20 -7 20 -20z m320 -30 c0 -25 4 -30 25 -30 16
0 25 -6 25 -15 0 -9 -9 -15 -25 -15 -21 0 -25 -5 -25 -30 0 -23 -4 -30 -20
-30 -16 0 -20 7 -20 30 0 27 -3 30 -30 30 -20 0 -30 5 -30 15 0 10 10 15 30
15 27 0 30 3 30 30 0 23 4 30 20 30 16 0 20 -7 20 -30z m-911 -16 c12 -15 21
-35 21 -45 0 -16 -8 -19 -56 -19 -57 0 -67 -11 -31 -34 12 -8 23 -7 38 2 30
19 53 -3 25 -24 -52 -37 -126 1 -126 65 0 74 85 110 129 55z m164 12 c15 -12
15 -15 3 -25 -11 -9 -20 -9 -34 -2 -16 8 -25 7 -43 -7 -43 -35 0 -99 49 -73
13 7 22 7 30 -1 27 -27 -56 -50 -97 -28 -31 16 -46 65 -31 100 7 17 20 35 29
40 23 14 73 12 94 -4z m67 -35 c0 -32 6 -55 16 -65 8 -9 17 -16 19 -16 2 0 11
7 19 16 10 10 16 33 16 65 0 43 3 50 18 47 25 -5 31 -145 6 -155 -9 -3 -20 0
-24 7 -5 8 -9 9 -14 1 -4 -6 -20 -11 -36 -11 -41 0 -60 32 -60 102 0 51 2 58
20 58 17 0 20 -7 20 -49z m176 38 c4 -8 9 -8 17 0 17 17 37 13 37 -7 0 -9 -10
-22 -22 -27 -19 -8 -24 -19 -26 -62 -3 -45 -6 -53 -23 -53 -17 0 -19 7 -19 80
0 63 3 80 14 80 8 0 18 -5 22 -11z m112 -72 c3 -72 1 -77 -18 -77 -18 0 -20 6
-20 81 0 71 2 80 18 77 14 -3 17 -16 20 -81z m189 26 l20 -58 18 58 c14 42 23
57 37 57 24 0 23 -5 -14 -100 -32 -83 -61 -116 -92 -104 -22 8 -20 34 2 34 31
0 31 9 1 82 -34 83 -35 88 -11 88 13 0 24 -16 39 -57z m-1027 -235 c0 -27 60
-136 110 -202 l53 -69 -29 -23 c-27 -22 -29 -22 -47 -6 -52 47 -148 209 -172
290 -6 21 -3 22 39 22 30 0 46 -4 46 -12z m1199 -15 c-39 -103 -150 -253 -173
-234 -19 16 -147 77 -191 91 -22 7 -67 16 -100 19 -60 6 -60 6 -63 41 -4 44
-27 70 -62 70 -35 0 -58 -26 -62 -70 -3 -34 -4 -35 -58 -41 -84 -10 -137 -27
-228 -74 l-82 -42 -35 38 c-46 52 -79 103 -109 172 l-26 57 600 0 600 0 -11
-27z m106 5 c-23 -79 -93 -201 -157 -274 l-30 -34 -29 21 c-16 11 -29 23 -29
27 0 4 21 32 46 62 25 30 63 92 85 138 l41 82 40 0 c36 0 39 -2 33 -22z m-654
-65 c17 -46 9 -58 -41 -58 -39 0 -45 3 -48 22 -5 36 15 63 49 63 23 0 32 -6
40 -27z m-151 -174 l0 -89 99 0 c69 0 102 4 109 13 6 7 12 49 14 92 3 79 3 80
28 77 47 -6 185 -58 229 -86 l44 -28 -29 -24 c-41 -35 -179 -100 -244 -115
-116 -28 -274 -13 -387 37 -58 25 -163 92 -163 103 0 24 266 127 293 114 4 -2
7 -44 7 -94z m210 27 c0 -101 -8 -108 -114 -104 l-81 3 -3 74 c-2 41 -1 80 2
88 4 10 30 13 101 13 l95 0 0 -74z"/>
<path d="M790 1560 c-54 -54 24 -132 86 -85 22 17 12 20 -17 4 -41 -22 -90 21
-69 60 15 28 47 35 75 17 14 -9 25 -12 25 -7 0 14 -34 31 -59 31 -12 0 -30 -9
-41 -20z"/>
<path d="M1205 1570 c3 -5 15 -10 25 -10 16 0 20 -9 23 -52 l3 -53 2 53 c2 48
4 52 26 52 14 0 28 5 31 10 4 6 -17 10 -55 10 -38 0 -59 -4 -55 -10z"/>
<path d="M1333 1520 c0 -36 2 -50 4 -32 2 17 2 47 0 65 -2 17 -4 3 -4 -33z"/>
<path d="M1385 1526 c-14 -32 -24 -61 -21 -64 3 -3 8 3 12 12 8 21 72 22 80 1
4 -8 10 -15 15 -15 9 0 -33 96 -50 113 -7 7 -18 -7 -36 -47z m50 -3 c5 -20 3
-23 -19 -23 -30 0 -30 0 -14 35 12 27 22 24 33 -12z"/>
<path d="M912 1528 c-28 -28 -3 -72 39 -66 30 4 47 33 33 56 -14 21 -55 27
-72 10z m58 -13 c10 -12 10 -18 0 -30 -7 -8 -18 -15 -25 -15 -7 0 -18 7 -25
15 -10 12 -10 18 0 30 7 8 18 15 25 15 7 0 18 -7 25 -15z"/>
<path d="M1006 1533 c-3 -4 -5 -22 -5 -42 l2 -36 6 35 c9 50 41 55 41 6 0 -20
5 -36 11 -36 5 0 7 5 4 11 -11 16 4 59 20 59 10 0 15 -10 15 -29 0 -17 5 -33
10 -36 12 -7 13 44 2 62 -7 11 -95 16 -106 6z"/>
<path d="M1142 1528 c-6 -6 -11 -32 -10 -57 l1 -46 6 44 c7 53 32 74 57 49 15
-14 15 -19 4 -33 -8 -9 -22 -14 -33 -11 -14 3 -17 2 -10 -5 27 -27 77 16 57
49 -14 21 -55 27 -72 10z"/>
<path d="M762 1158 c-20 -20 -14 -28 23 -28 19 0 35 4 35 8 0 12 -22 32 -35
32 -6 0 -16 -5 -23 -12z"/>
<path d="M1115 681 c-7 -12 12 -24 25 -16 11 7 4 25 -10 25 -5 0 -11 -4 -15
-9z"/>
</g>
</svg>
