<?xml version="1.0" standalone="no"?>
<!DOCTYPE svg PUBLIC "-//W3C//DTD SVG 20010904//EN"
 "http://www.w3.org/TR/2001/REC-SVG-20010904/DTD/svg10.dtd">
<svg version="1.0" xmlns="http://www.w3.org/2000/svg"
 width="768.000000pt" height="768.000000pt" viewBox="0 0 768.000000 768.000000"
 preserveAspectRatio="xMidYMid meet">

<g transform="translate(0.000000,768.000000) scale(0.100000,-0.100000)"
fill="#000000" stroke="none">
<path d="M3635 6554 c-16 -2 -73 -9 -125 -15 -288 -32 -609 -128 -880 -264
-108 -54 -260 -143 -260 -153 0 -3 14 -20 31 -38 l31 -32 -78 -53 c-164 -109
-344 -257 -322 -263 7 -2 82 -13 167 -25 377 -53 766 -151 1051 -266 159 -64
161 -65 154 -119 -13 -93 34 -314 91 -427 41 -80 100 -145 157 -173 45 -21 75
-27 209 -36 212 -14 334 -36 505 -91 53 -17 97 -29 98 -27 1 2 7 21 12 43 6
29 14 40 28 40 10 0 22 -7 26 -15 43 -92 59 -117 95 -142 44 -32 40 -34 61 37
16 51 40 43 73 -24 30 -59 85 -131 101 -131 4 0 11 19 16 42 13 63 35 61 68
-6 16 -33 51 -77 88 -112 l62 -57 61 6 c33 3 66 3 72 -1 6 -4 36 -50 68 -102
32 -52 69 -108 82 -124 16 -19 23 -38 20 -53 -3 -17 4 -30 25 -48 52 -44 121
-79 188 -96 41 -11 66 -22 68 -32 2 -10 -20 -31 -58 -57 -33 -23 -76 -55 -96
-72 l-35 -31 -67 65 c-94 90 -126 112 -269 187 -140 73 -166 98 -177 176 -7
43 -10 47 -67 75 -111 57 -414 182 -544 225 -343 115 -591 122 -795 23 -304
-147 -410 -536 -233 -856 39 -71 145 -189 209 -233 76 -52 184 -100 282 -126
83 -21 132 -26 342 -34 701 -26 1140 -132 1479 -356 163 -108 323 -291 389
-447 l29 -68 63 97 c224 346 367 749 416 1172 30 253 7 647 -51 898 -96 415
-280 791 -549 1125 -77 96 -290 309 -386 386 -392 316 -827 508 -1325 585
-124 20 -518 35 -600 23z m755 -1612 c203 -90 395 -204 560 -334 105 -83 261
-239 258 -257 -2 -11 -17 -17 -52 -19 l-49 -3 -96 94 c-53 52 -125 118 -160
146 -154 126 -395 269 -625 372 -126 56 -156 80 -125 99 15 10 145 -34 289
-98z"/>
<path d="M1748 5586 c-34 -42 -34 -46 -5 -46 12 0 32 -3 44 -6 22 -6 21 -8
-21 -58 -58 -69 -147 -188 -143 -193 2 -1 75 2 163 8 217 15 830 6 1044 -15
175 -18 339 -42 348 -51 3 -3 16 -36 28 -73 30 -91 25 -95 -87 -77 -439 71
-975 84 -1597 39 l-93 -7 -24 -46 -23 -47 86 4 87 4 118 -120 119 -119 106 34
c423 134 915 223 1240 223 l103 0 14 -33 c18 -44 39 -127 33 -132 -3 -3 -76
-10 -164 -15 -397 -26 -768 -89 -1179 -201 -169 -46 -507 -157 -667 -219
l-106 -41 -7 -40 c-4 -22 -5 -43 -2 -45 3 -3 72 19 154 49 178 66 418 145 568
187 l110 30 511 -511 c495 -495 511 -513 523 -561 16 -70 82 -208 135 -282
103 -145 286 -278 455 -332 l90 -29 667 -667 667 -666 -54 -27 c-91 -47 -268
-114 -390 -150 -390 -113 -820 -138 -1224 -70 -810 137 -1546 668 -1933 1395
-171 321 -284 698 -315 1055 -3 33 -4 30 -5 -15 -3 -73 23 -289 49 -420 180
-899 814 -1655 1672 -1994 639 -252 1388 -248 2022 10 287 118 518 263 811
510 l25 20 -44 110 c-160 398 -374 662 -632 779 -259 118 -524 170 -975 190
-199 9 -315 24 -405 52 -382 121 -640 455 -638 828 1 173 45 349 120 478 48
82 159 195 258 265 44 30 82 57 83 58 2 1 -21 63 -51 136 -72 172 -111 277
-151 412 l-33 109 -58 23 c-278 113 -759 238 -1190 309 -198 33 -204 33 -237
-9z"/>
<path d="M5227 4084 c-10 -11 12 -54 40 -79 16 -13 29 -22 31 -20 3 3 -57 105
-62 105 -2 0 -5 -3 -9 -6z"/>
<path d="M5241 2793 c235 -171 404 -412 505 -719 19 -60 38 -116 40 -124 6
-16 6 -16 142 143 l73 86 -35 68 c-103 194 -297 378 -516 488 -78 39 -241 105
-261 105 -6 0 17 -21 52 -47z"/>
</g>
</svg>
