<?xml version="1.0" standalone="no"?>
<!DOCTYPE svg PUBLIC "-//W3C//DTD SVG 20010904//EN"
 "http://www.w3.org/TR/2001/REC-SVG-20010904/DTD/svg10.dtd">
<svg version="1.0" xmlns="http://www.w3.org/2000/svg"
 width="576.000000pt" height="576.000000pt" viewBox="0 0 576.000000 576.000000"
 preserveAspectRatio="xMidYMid meet">

<g transform="translate(0.000000,576.000000) scale(0.100000,-0.100000)"
fill="#000000" stroke="none">
<path d="M1780 1315 l0 -615 105 0 105 0 0 615 0 615 -105 0 -105 0 0 -615z"/>
<path d="M4040 1315 l0 -615 110 0 110 0 0 215 c0 118 3 215 8 215 4 0 77 -97
162 -216 85 -118 158 -218 162 -220 9 -6 198 54 198 62 0 3 -74 97 -165 210
l-166 206 118 125 c65 69 128 137 140 153 l22 27 -75 32 c-42 18 -80 31 -84
29 -5 -2 -72 -77 -151 -168 -78 -91 -148 -166 -155 -168 -12 -3 -14 58 -14
362 l0 366 -110 0 -110 0 0 -615z"/>
<path d="M332 1536 c-83 -27 -141 -83 -162 -157 -16 -54 -12 -92 16 -147 21
-43 46 -68 138 -138 140 -109 156 -127 156 -182 0 -35 -6 -49 -29 -73 -26 -25
-37 -29 -86 -29 -57 0 -95 14 -151 55 l-30 23 -34 -56 -33 -55 29 -24 c83 -67
266 -90 383 -49 113 39 181 144 168 257 -9 75 -38 111 -168 215 -64 51 -127
106 -138 120 -29 37 -26 70 8 105 25 24 38 29 78 29 26 0 68 -9 92 -21 50 -22
52 -21 89 42 l22 36 -62 28 c-76 34 -215 44 -286 21z"/>
<path d="M1182 1532 c-52 -19 -67 -29 -129 -86 l-33 -30 0 57 0 57 -105 0
-105 0 0 -625 0 -626 103 3 102 3 2 255 c2 140 3 259 3 264 0 4 19 -11 43 -34
64 -65 115 -85 217 -85 74 0 93 4 152 32 116 54 201 167 229 301 17 82 7 233
-20 304 -29 76 -105 159 -178 195 -75 36 -201 43 -281 15z m139 -128 c77 -39
122 -140 122 -274 0 -138 -44 -248 -119 -299 -29 -20 -43 -23 -102 -19 -84 4
-129 34 -167 108 -47 93 -54 253 -14 357 46 124 173 181 280 127z"/>
<path d="M3485 1536 c-56 -18 -95 -40 -132 -75 -18 -17 -34 -31 -37 -31 -4 0
-6 23 -6 50 l0 50 -110 0 -110 0 0 -415 0 -415 110 0 109 0 3 293 3 294 27 40
c33 51 87 77 158 77 69 1 116 -25 144 -79 20 -38 21 -58 24 -332 l3 -293 105
0 105 0 -3 333 -3 332 -27 52 c-32 61 -79 99 -144 119 -57 17 -165 17 -219 0z"/>
<path d="M2142 1203 c4 -371 6 -383 85 -454 55 -50 102 -64 208 -64 78 0 98 4
145 27 30 15 72 43 94 63 21 19 40 35 42 35 2 0 4 -25 4 -55 l0 -55 105 0 105
0 0 415 0 415 -104 0 -104 0 -4 -277 c-3 -268 -4 -280 -26 -326 -33 -65 -88
-97 -169 -97 -73 0 -118 26 -148 85 -18 37 -20 60 -20 327 l0 288 -108 0 -108
0 3 -327z"/>
</g>
</svg>
