<?xml version="1.0" standalone="no"?>
<!DOCTYPE svg PUBLIC "-//W3C//DTD SVG 20010904//EN"
 "http://www.w3.org/TR/2001/REC-SVG-20010904/DTD/svg10.dtd">
<svg version="1.0" xmlns="http://www.w3.org/2000/svg"
 width="1200.000000pt" height="1200.000000pt" viewBox="0 0 1200.000000 1200.000000"
 preserveAspectRatio="xMidYMid meet">

<g transform="translate(0.000000,1200.000000) scale(0.100000,-0.100000)"
fill="#000000" stroke="none">
<path d="M1292 11989 c-243 -28 -499 -133 -707 -288 -125 -93 -269 -250 -357
-387 -82 -128 -161 -322 -200 -492 l-23 -97 -3 -4640 c-2 -3280 0 -4671 8
-4747 67 -667 587 -1206 1257 -1303 97 -14 588 -15 4783 -13 l4675 3 93 22
c412 96 737 321 954 659 90 141 171 349 204 529 18 97 19 251 19 4775 0 4524
-1 4678 -19 4775 -56 303 -192 561 -411 780 -206 207 -447 339 -743 407 l-97
23 -4680 1 c-2574 1 -4713 -2 -4753 -7z m6743 -169 c1720 -25 2777 -79 3034
-156 63 -18 116 -63 132 -111 12 -38 7 -139 -9 -155 -5 -5 -62 -13 -127 -18
-64 -5 -119 -11 -122 -14 -3 -2 10 -12 29 -22 44 -22 146 -96 152 -110 5 -14
-95 -163 -191 -283 -89 -111 -468 -492 -593 -598 l-85 -71 -80 -7 c-44 -4 -91
-14 -103 -22 -16 -10 -42 -14 -77 -11 -42 2 -51 0 -43 -10 9 -10 -4 -11 -62
-6 -58 6 -72 5 -65 -6 6 -9 -2 -11 -36 -8 -30 3 -56 -1 -81 -14 -21 -10 -56
-18 -78 -18 -27 0 -39 -4 -34 -11 4 -7 -7 -10 -32 -9 -43 2 -104 -9 -104 -19
0 -3 -28 -7 -62 -8 -34 -1 -55 2 -48 7 8 5 -11 10 -46 12 -32 2 -63 1 -69 -4
-5 -4 16 -8 45 -8 117 -1 -32 -33 -183 -40 -5 0 -5 -5 -2 -11 5 -7 -13 -10
-56 -9 -83 2 -87 1 -69 -9 9 -6 -16 -9 -70 -8 -89 1 -210 -12 -210 -22 1 -3
38 -32 84 -64 175 -122 511 -410 500 -428 -4 -8 -31 -27 -138 -101 -6 -4 24
-42 70 -90 173 -180 314 -354 446 -551 968 -1444 884 -3334 -207 -4693 -115
-143 -282 -320 -413 -438 -141 -127 -157 -138 -179 -134 -10 2 16 30 78 83
125 107 305 286 415 415 536 628 850 1368 935 2205 18 177 15 579 -5 760 -99
870 -441 1627 -1022 2260 -56 60 -114 122 -130 137 -29 26 -29 26 -52 8 l-24
-20 128 -137 c585 -635 926 -1366 1031 -2213 22 -178 25 -664 5 -835 -89 -769
-374 -1454 -850 -2045 -97 -120 -336 -366 -465 -478 -77 -67 -101 -82 -108
-71 -15 24 -96 252 -154 431 -350 1097 -463 2215 -320 3178 88 599 291 1180
580 1659 104 172 106 178 106 258 0 136 -92 241 -227 258 -117 16 -666 -30
-968 -81 -1463 -245 -2644 -1016 -3511 -2292 -473 -697 -862 -1591 -1098
-2521 l-24 -94 -44 64 c-76 113 -176 287 -247 432 -195 398 -315 812 -374
1287 -20 165 -17 691 5 865 60 463 189 890 391 1289 130 256 317 541 477 727
l49 57 -27 17 -27 18 -39 -44 c-96 -107 -247 -319 -350 -490 -685 -1139 -751
-2534 -176 -3728 84 -176 147 -288 256 -454 76 -118 95 -157 76 -157 -10 0
-163 235 -233 355 -245 425 -419 947 -484 1450 -137 1058 168 2148 831 2973
46 57 81 107 78 112 -3 5 -39 28 -80 51 l-74 42 42 51 c23 28 112 122 199 210
87 87 158 160 158 162 0 10 -221 -3 -232 -14 -16 -16 -62 -16 -52 -1 5 9 -11
10 -61 4 -41 -4 -65 -3 -62 2 6 10 -181 9 -328 -1 -38 -3 -61 -1 -51 3 19 7
19 8 -1 13 -11 3 -27 2 -34 -3 -8 -5 -34 -9 -58 -9 -40 0 -42 2 -30 17 13 15
12 16 -6 8 -31 -13 -129 -19 -121 -7 4 6 -2 8 -14 5 -24 -7 -149 74 -375 242
-336 249 -631 501 -891 760 -272 271 -386 414 -480 601 -50 98 -57 120 -62
186 -4 73 -4 75 28 111 22 26 48 41 84 52 238 67 1710 129 3676 154 880 12
2777 12 3525 1z m216 -3027 c-16 -32 -52 -112 -81 -178 -395 -909 -525 -1970
-384 -3140 80 -671 280 -1467 523 -2090 l39 -100 -67 -39 c-417 -243 -924
-411 -1451 -483 -193 -26 -745 -26 -940 0 -624 83 -1185 293 -1688 629 -182
122 -327 238 -536 430 l-69 64 22 104 c222 1051 598 1979 1111 2740 422 625
933 1119 1527 1476 572 343 1245 562 1963 637 19 2 41 5 48 5 8 1 1 -19 -17
-55z m-4359 -5255 c516 -412 1133 -692 1778 -807 889 -159 1842 4 2623 446 77
43 95 48 84 20 -7 -18 -352 -193 -504 -255 -339 -139 -710 -234 -1088 -278
-208 -25 -642 -25 -850 0 -853 99 -1601 434 -2236 1001 -78 69 -119 113 -119
126 0 16 26 -3 110 -80 61 -55 152 -133 202 -173z"/>
<path d="M9380 10160 c-12 -8 -10 -10 8 -10 13 0 20 4 17 10 -7 12 -6 12 -25
0z"/>
<path d="M2927 9718 c-7 -4 12 -8 41 -8 28 0 52 2 52 4 0 8 -81 11 -93 4z"/>
<path d="M2863 9703 c9 -2 23 -2 30 0 6 3 -1 5 -18 5 -16 0 -22 -2 -12 -5z"/>
</g>
</svg>
